<svg xmlns="http://www.w3.org/2000/svg" width="900" height="520" viewBox="0 0 900 520">
<rect width="100%" height="100%" fill="white"/>
<text x="450.0" y="30" text-anchor="middle" font-size="22" font-family="Arial">Repeated-Episode Memory Ablation: Repeated Failure Count</text>
<line x1="90" y1="60" x2="90" y2="450" stroke="black" stroke-width="2"/>
<line x1="90" y1="450" x2="870" y2="450" stroke="black" stroke-width="2"/>
<line x1="90" y1="450.0" x2="870" y2="450.0" stroke="#dddddd" stroke-width="1"/>
<text x="80" y="455.0" text-anchor="end" font-size="12" font-family="Arial">1</text>
<line x1="90" y1="352.5" x2="870" y2="352.5" stroke="#dddddd" stroke-width="1"/>
<text x="80" y="357.5" text-anchor="end" font-size="12" font-family="Arial">1.5</text>
<line x1="90" y1="255.0" x2="870" y2="255.0" stroke="#dddddd" stroke-width="1"/>
<text x="80" y="260.0" text-anchor="end" font-size="12" font-family="Arial">2</text>
<line x1="90" y1="157.5" x2="870" y2="157.5" stroke="#dddddd" stroke-width="1"/>
<text x="80" y="162.5" text-anchor="end" font-size="12" font-family="Arial">2.5</text>
<line x1="90" y1="60.0" x2="870" y2="60.0" stroke="#dddddd" stroke-width="1"/>
<text x="80" y="65.0" text-anchor="end" font-size="12" font-family="Arial">3</text>
<line x1="90.0" y1="60" x2="90.0" y2="450" stroke="#f0f0f0" stroke-width="1"/>
<text x="90.0" y="474" text-anchor="middle" font-size="12" font-family="Arial">0</text>
<line x1="176.66666666666666" y1="60" x2="176.66666666666666" y2="450" stroke="#f0f0f0" stroke-width="1"/>
<text x="176.66666666666666" y="474" text-anchor="middle" font-size="12" font-family="Arial">1</text>
<line x1="263.3333333333333" y1="60" x2="263.3333333333333" y2="450" stroke="#f0f0f0" stroke-width="1"/>
<text x="263.3333333333333" y="474" text-anchor="middle" font-size="12" font-family="Arial">2</text>
<line x1="350.0" y1="60" x2="350.0" y2="450" stroke="#f0f0f0" stroke-width="1"/>
<text x="350.0" y="474" text-anchor="middle" font-size="12" font-family="Arial">3</text>
<line x1="436.66666666666663" y1="60" x2="436.66666666666663" y2="450" stroke="#f0f0f0" stroke-width="1"/>
<text x="436.66666666666663" y="474" text-anchor="middle" font-size="12" font-family="Arial">4</text>
<line x1="523.3333333333334" y1="60" x2="523.3333333333334" y2="450" stroke="#f0f0f0" stroke-width="1"/>
<text x="523.3333333333334" y="474" text-anchor="middle" font-size="12" font-family="Arial">5</text>
<line x1="610.0" y1="60" x2="610.0" y2="450" stroke="#f0f0f0" stroke-width="1"/>
<text x="610.0" y="474" text-anchor="middle" font-size="12" font-family="Arial">6</text>
<line x1="696.6666666666666" y1="60" x2="696.6666666666666" y2="450" stroke="#f0f0f0" stroke-width="1"/>
<text x="696.6666666666666" y="474" text-anchor="middle" font-size="12" font-family="Arial">7</text>
<line x1="783.3333333333333" y1="60" x2="783.3333333333333" y2="450" stroke="#f0f0f0" stroke-width="1"/>
<text x="783.3333333333333" y="474" text-anchor="middle" font-size="12" font-family="Arial">8</text>
<line x1="870.0" y1="60" x2="870.0" y2="450" stroke="#f0f0f0" stroke-width="1"/>
<text x="870.0" y="474" text-anchor="middle" font-size="12" font-family="Arial">9</text>
<polyline fill="none" stroke="#d62728" stroke-width="3" points="90.00,255.00 176.67,60.00 263.33,60.00 350.00,60.00 436.67,60.00 523.33,60.00 610.00,60.00 696.67,60.00 783.33,60.00 870.00,60.00"/>
<circle cx="90.00" cy="255.00" r="4" fill="#d62728"/>
<circle cx="176.67" cy="60.00" r="4" fill="#d62728"/>
<circle cx="263.33" cy="60.00" r="4" fill="#d62728"/>
<circle cx="350.00" cy="60.00" r="4" fill="#d62728"/>
<circle cx="436.67" cy="60.00" r="4" fill="#d62728"/>
<circle cx="523.33" cy="60.00" r="4" fill="#d62728"/>
<circle cx="610.00" cy="60.00" r="4" fill="#d62728"/>
<circle cx="696.67" cy="60.00" r="4" fill="#d62728"/>
<circle cx="783.33" cy="60.00" r="4" fill="#d62728"/>
<circle cx="870.00" cy="60.00" r="4" fill="#d62728"/>
<polyline fill="none" stroke="#ff7f0e" stroke-width="3" points="90.00,255.00 176.67,255.00 263.33,255.00 350.00,255.00 436.67,255.00 523.33,255.00 610.00,255.00 696.67,255.00 783.33,255.00 870.00,255.00"/>
<circle cx="90.00" cy="255.00" r="4" fill="#ff7f0e"/>
<circle cx="176.67" cy="255.00" r="4" fill="#ff7f0e"/>
<circle cx="263.33" cy="255.00" r="4" fill="#ff7f0e"/>
<circle cx="350.00" cy="255.00" r="4" fill="#ff7f0e"/>
<circle cx="436.67" cy="255.00" r="4" fill="#ff7f0e"/>
<circle cx="523.33" cy="255.00" r="4" fill="#ff7f0e"/>
<circle cx="610.00" cy="255.00" r="4" fill="#ff7f0e"/>
<circle cx="696.67" cy="255.00" r="4" fill="#ff7f0e"/>
<circle cx="783.33" cy="255.00" r="4" fill="#ff7f0e"/>
<circle cx="870.00" cy="255.00" r="4" fill="#ff7f0e"/>
<polyline fill="none" stroke="#2ca02c" stroke-width="3" points="90.00,255.00 176.67,255.00 263.33,255.00 350.00,255.00 436.67,255.00 523.33,255.00 610.00,255.00 696.67,255.00 783.33,255.00 870.00,255.00"/>
<circle cx="90.00" cy="255.00" r="4" fill="#2ca02c"/>
<circle cx="176.67" cy="255.00" r="4" fill="#2ca02c"/>
<circle cx="263.33" cy="255.00" r="4" fill="#2ca02c"/>
<circle cx="350.00" cy="255.00" r="4" fill="#2ca02c"/>
<circle cx="436.67" cy="255.00" r="4" fill="#2ca02c"/>
<circle cx="523.33" cy="255.00" r="4" fill="#2ca02c"/>
<circle cx="610.00" cy="255.00" r="4" fill="#2ca02c"/>
<circle cx="696.67" cy="255.00" r="4" fill="#2ca02c"/>
<circle cx="783.33" cy="255.00" r="4" fill="#2ca02c"/>
<circle cx="870.00" cy="255.00" r="4" fill="#2ca02c"/>
<polyline fill="none" stroke="#1f77b4" stroke-width="3" points="90.00,255.00 176.67,450.00 263.33,255.00 350.00,255.00 436.67,255.00 523.33,255.00 610.00,255.00 696.67,255.00 783.33,255.00 870.00,255.00"/>
<circle cx="90.00" cy="255.00" r="4" fill="#1f77b4"/>
<circle cx="176.67" cy="450.00" r="4" fill="#1f77b4"/>
<circle cx="263.33" cy="255.00" r="4" fill="#1f77b4"/>
<circle cx="350.00" cy="255.00" r="4" fill="#1f77b4"/>
<circle cx="436.67" cy="255.00" r="4" fill="#1f77b4"/>
<circle cx="523.33" cy="255.00" r="4" fill="#1f77b4"/>
<circle cx="610.00" cy="255.00" r="4" fill="#1f77b4"/>
<circle cx="696.67" cy="255.00" r="4" fill="#1f77b4"/>
<circle cx="783.33" cy="255.00" r="4" fill="#1f77b4"/>
<circle cx="870.00" cy="255.00" r="4" fill="#1f77b4"/>
<line x1="690" y1="70" x2="714" y2="70" stroke="#d62728" stroke-width="3"/>
<text x="722" y="74" font-size="13" font-family="Arial">no_memory</text>
<line x1="690" y1="94" x2="714" y2="94" stroke="#ff7f0e" stroke-width="3"/>
<text x="722" y="98" font-size="13" font-family="Arial">episodic_retrieval_only</text>
<line x1="690" y1="118" x2="714" y2="118" stroke="#2ca02c" stroke-width="3"/>
<text x="722" y="122" font-size="13" font-family="Arial">episodic_plus_reflection</text>
<line x1="690" y1="142" x2="714" y2="142" stroke="#1f77b4" stroke-width="3"/>
<text x="722" y="146" font-size="13" font-family="Arial">full_memory</text>
<text x="450.0" y="502" text-anchor="middle" font-size="15" font-family="Arial">Episode Index</text>
<text x="24" y="260.0" text-anchor="middle" font-size="15" font-family="Arial" transform="rotate(-90 24 260.0)">Repeated Failure Count</text>
</svg>