<svg xmlns="http://www.w3.org/2000/svg" width="900" height="520" viewBox="0 0 900 520">
<rect width="100%" height="100%" fill="white"/>
<text x="450.0" y="30" text-anchor="middle" font-size="22" font-family="Arial">Planner Ablation: Calibration-Replanning Rate</text>
<line x1="90" y1="60" x2="90" y2="430" stroke="black" stroke-width="2"/>
<line x1="90" y1="430" x2="870" y2="430" stroke="black" stroke-width="2"/>
<line x1="90" y1="430.0" x2="870" y2="430.0" stroke="#dddddd" stroke-width="1"/>
<text x="80" y="435.0" text-anchor="end" font-size="12" font-family="Arial">0</text>
<line x1="90" y1="337.5" x2="870" y2="337.5" stroke="#dddddd" stroke-width="1"/>
<text x="80" y="342.5" text-anchor="end" font-size="12" font-family="Arial">0.25</text>
<line x1="90" y1="245.0" x2="870" y2="245.0" stroke="#dddddd" stroke-width="1"/>
<text x="80" y="250.0" text-anchor="end" font-size="12" font-family="Arial">0.5</text>
<line x1="90" y1="152.5" x2="870" y2="152.5" stroke="#dddddd" stroke-width="1"/>
<text x="80" y="157.5" text-anchor="end" font-size="12" font-family="Arial">0.75</text>
<line x1="90" y1="60.0" x2="870" y2="60.0" stroke="#dddddd" stroke-width="1"/>
<text x="80" y="65.0" text-anchor="end" font-size="12" font-family="Arial">1</text>
<rect x="119.25" y="60.00" width="71.50" height="370.00" fill="#1f77b4" opacity="0.9"/>
<text x="155.00" y="52.00" text-anchor="middle" font-size="12" font-family="Arial">1</text>
<text x="155.00" y="454" text-anchor="middle" font-size="12" font-family="Arial">full_system</text>
<rect x="249.25" y="430.00" width="71.50" height="0.00" fill="#8c564b" opacity="0.9"/>
<text x="285.00" y="422.00" text-anchor="middle" font-size="12" font-family="Arial">0</text>
<text x="285.00" y="454" text-anchor="middle" font-size="12" font-family="Arial">top_k_baseline</text>
<rect x="379.25" y="60.00" width="71.50" height="370.00" fill="#9467bd" opacity="0.9"/>
<text x="415.00" y="52.00" text-anchor="middle" font-size="12" font-family="Arial">1</text>
<text x="415.00" y="454" text-anchor="middle" font-size="12" font-family="Arial">no_fidelity_escalation</text>
<rect x="509.25" y="60.00" width="71.50" height="370.00" fill="#ff7f0e" opacity="0.9"/>
<text x="545.00" y="52.00" text-anchor="middle" font-size="12" font-family="Arial">1</text>
<text x="545.00" y="454" text-anchor="middle" font-size="12" font-family="Arial">no_phase_updates</text>
<rect x="639.25" y="430.00" width="71.50" height="0.00" fill="#d62728" opacity="0.9"/>
<text x="675.00" y="422.00" text-anchor="middle" font-size="12" font-family="Arial">0</text>
<text x="675.00" y="454" text-anchor="middle" font-size="12" font-family="Arial">no_calibration_replanning</text>
<rect x="769.25" y="60.00" width="71.50" height="370.00" fill="#2ca02c" opacity="0.9"/>
<text x="805.00" y="52.00" text-anchor="middle" font-size="12" font-family="Arial">1</text>
<text x="805.00" y="454" text-anchor="middle" font-size="12" font-family="Arial">no_rollout_planning</text>
<text x="450.0" y="502" text-anchor="middle" font-size="15" font-family="Arial">Planner Mode</text>
<text x="24" y="260.0" text-anchor="middle" font-size="15" font-family="Arial" transform="rotate(-90 24 260.0)">Calibration Replanning Rate</text>
</svg>