<svg xmlns="http://www.w3.org/2000/svg" width="900" height="520" viewBox="0 0 900 520">
<rect width="100%" height="100%" fill="white"/>
<text x="450.0" y="30" text-anchor="middle" font-size="22" font-family="Arial">Memory Chapter: Repeated Failure Suppression</text>
<line x1="90" y1="60" x2="90" y2="430" stroke="black" stroke-width="2"/>
<line x1="90" y1="430" x2="870" y2="430" stroke="black" stroke-width="2"/>
<line x1="90" y1="430.0" x2="870" y2="430.0" stroke="#dddddd" stroke-width="1"/>
<text x="80" y="435.0" text-anchor="end" font-size="12" font-family="Arial">0</text>
<line x1="90" y1="337.5" x2="870" y2="337.5" stroke="#dddddd" stroke-width="1"/>
<text x="80" y="342.5" text-anchor="end" font-size="12" font-family="Arial">0.725</text>
<line x1="90" y1="245.0" x2="870" y2="245.0" stroke="#dddddd" stroke-width="1"/>
<text x="80" y="250.0" text-anchor="end" font-size="12" font-family="Arial">1.45</text>
<line x1="90" y1="152.5" x2="870" y2="152.5" stroke="#dddddd" stroke-width="1"/>
<text x="80" y="157.5" text-anchor="end" font-size="12" font-family="Arial">2.17</text>
<line x1="90" y1="60.0" x2="870" y2="60.0" stroke="#dddddd" stroke-width="1"/>
<text x="80" y="65.0" text-anchor="end" font-size="12" font-family="Arial">2.9</text>
<rect x="133.88" y="60.00" width="107.25" height="370.00" fill="#d62728" opacity="0.9"/>
<text x="187.50" y="52.00" text-anchor="middle" font-size="12" font-family="Arial">2.9</text>
<text x="187.50" y="454" text-anchor="middle" font-size="12" font-family="Arial">no_memory</text>
<rect x="328.88" y="174.83" width="107.25" height="255.17" fill="#ff7f0e" opacity="0.9"/>
<text x="382.50" y="166.83" text-anchor="middle" font-size="12" font-family="Arial">2</text>
<text x="382.50" y="454" text-anchor="middle" font-size="12" font-family="Arial">episodic_retrieval_only</text>
<rect x="523.88" y="174.83" width="107.25" height="255.17" fill="#2ca02c" opacity="0.9"/>
<text x="577.50" y="166.83" text-anchor="middle" font-size="12" font-family="Arial">2</text>
<text x="577.50" y="454" text-anchor="middle" font-size="12" font-family="Arial">episodic_plus_reflection</text>
<rect x="718.88" y="187.59" width="107.25" height="242.41" fill="#1f77b4" opacity="0.9"/>
<text x="772.50" y="179.59" text-anchor="middle" font-size="12" font-family="Arial">1.9</text>
<text x="772.50" y="454" text-anchor="middle" font-size="12" font-family="Arial">full_memory</text>
<text x="450.0" y="502" text-anchor="middle" font-size="15" font-family="Arial">Task</text>
<text x="24" y="260.0" text-anchor="middle" font-size="15" font-family="Arial" transform="rotate(-90 24 260.0)">Average Repeated Failure Count</text>
</svg>