<svg xmlns="http://www.w3.org/2000/svg" width="900" height="520" viewBox="0 0 900 520">
<rect width="100%" height="100%" fill="white"/>
<text x="450.0" y="30" text-anchor="middle" font-size="22" font-family="Arial">Prediction Gap vs Step</text>
<line x1="90" y1="60" x2="90" y2="450" stroke="black" stroke-width="2"/>
<line x1="90" y1="450" x2="870" y2="450" stroke="black" stroke-width="2"/>
<line x1="90" y1="450.0" x2="870" y2="450.0" stroke="#dddddd" stroke-width="1"/>
<text x="80" y="455.0" text-anchor="end" font-size="12" font-family="Arial">4.06e+07</text>
<line x1="90" y1="352.5" x2="870" y2="352.5" stroke="#dddddd" stroke-width="1"/>
<text x="80" y="357.5" text-anchor="end" font-size="12" font-family="Arial">4.71e+07</text>
<line x1="90" y1="255.00000000000006" x2="870" y2="255.00000000000006" stroke="#dddddd" stroke-width="1"/>
<text x="80" y="260.00000000000006" text-anchor="end" font-size="12" font-family="Arial">5.37e+07</text>
<line x1="90" y1="157.49999999999994" x2="870" y2="157.49999999999994" stroke="#dddddd" stroke-width="1"/>
<text x="80" y="162.49999999999994" text-anchor="end" font-size="12" font-family="Arial">6.02e+07</text>
<line x1="90" y1="60.0" x2="870" y2="60.0" stroke="#dddddd" stroke-width="1"/>
<text x="80" y="65.0" text-anchor="end" font-size="12" font-family="Arial">6.68e+07</text>
<line x1="90.0" y1="60" x2="90.0" y2="450" stroke="#f0f0f0" stroke-width="1"/>
<text x="90.0" y="474" text-anchor="middle" font-size="12" font-family="Arial">0</text>
<line x1="480.0" y1="60" x2="480.0" y2="450" stroke="#f0f0f0" stroke-width="1"/>
<text x="480.0" y="474" text-anchor="middle" font-size="12" font-family="Arial">1</text>
<line x1="870.0" y1="60" x2="870.0" y2="450" stroke="#f0f0f0" stroke-width="1"/>
<text x="870.0" y="474" text-anchor="middle" font-size="12" font-family="Arial">2</text>
<polyline fill="none" stroke="#1f77b4" stroke-width="3" points="90.00,140.72 480.00,405.10 870.00,450.00"/>
<circle cx="90.00" cy="140.72" r="4" fill="#1f77b4"/>
<circle cx="480.00" cy="405.10" r="4" fill="#1f77b4"/>
<circle cx="870.00" cy="450.00" r="4" fill="#1f77b4"/>
<polyline fill="none" stroke="#d62728" stroke-width="3" points="90.00,140.72 480.00,101.04 870.00,60.00"/>
<circle cx="90.00" cy="140.72" r="4" fill="#d62728"/>
<circle cx="480.00" cy="101.04" r="4" fill="#d62728"/>
<circle cx="870.00" cy="60.00" r="4" fill="#d62728"/>
<polyline fill="none" stroke="#2ca02c" stroke-width="3" points="90.00,258.18 480.00,262.92 870.00,262.92"/>
<circle cx="90.00" cy="258.18" r="4" fill="#2ca02c"/>
<circle cx="480.00" cy="262.92" r="4" fill="#2ca02c"/>
<circle cx="870.00" cy="262.92" r="4" fill="#2ca02c"/>
<line x1="690" y1="70" x2="714" y2="70" stroke="#1f77b4" stroke-width="3"/>
<text x="722" y="74" font-size="13" font-family="Arial">full_system</text>
<line x1="690" y1="94" x2="714" y2="94" stroke="#d62728" stroke-width="3"/>
<text x="722" y="98" font-size="13" font-family="Arial">no_calibration</text>
<line x1="690" y1="118" x2="714" y2="118" stroke="#2ca02c" stroke-width="3"/>
<text x="722" y="122" font-size="13" font-family="Arial">no_world_model</text>
<text x="450.0" y="502" text-anchor="middle" font-size="15" font-family="Arial">Optimization Step</text>
<text x="24" y="260.0" text-anchor="middle" font-size="15" font-family="Arial" transform="rotate(-90 24 260.0)">Average Absolute Prediction Gap</text>
</svg>