<svg xmlns="http://www.w3.org/2000/svg" width="900" height="520" viewBox="0 0 900 520">
<rect width="100%" height="100%" fill="white"/>
<text x="450.0" y="30" text-anchor="middle" font-size="22" font-family="Arial">Memory Chapter: Prediction Gap Reduction</text>
<line x1="90" y1="60" x2="90" y2="430" stroke="black" stroke-width="2"/>
<line x1="90" y1="430" x2="870" y2="430" stroke="black" stroke-width="2"/>
<line x1="90" y1="430.0" x2="870" y2="430.0" stroke="#dddddd" stroke-width="1"/>
<text x="80" y="435.0" text-anchor="end" font-size="12" font-family="Arial">0</text>
<line x1="90" y1="337.5" x2="870" y2="337.5" stroke="#dddddd" stroke-width="1"/>
<text x="80" y="342.5" text-anchor="end" font-size="12" font-family="Arial">0.354</text>
<line x1="90" y1="245.0" x2="870" y2="245.0" stroke="#dddddd" stroke-width="1"/>
<text x="80" y="250.0" text-anchor="end" font-size="12" font-family="Arial">0.707</text>
<line x1="90" y1="152.49999999999994" x2="870" y2="152.49999999999994" stroke="#dddddd" stroke-width="1"/>
<text x="80" y="157.49999999999994" text-anchor="end" font-size="12" font-family="Arial">1.06</text>
<line x1="90" y1="60.0" x2="870" y2="60.0" stroke="#dddddd" stroke-width="1"/>
<text x="80" y="65.0" text-anchor="end" font-size="12" font-family="Arial">1.41</text>
<rect x="177.75" y="227.83" width="214.50" height="202.17" fill="#d62728" opacity="0.9"/>
<text x="285.00" y="219.83" text-anchor="middle" font-size="12" font-family="Arial">0.773</text>
<text x="285.00" y="454" text-anchor="middle" font-size="12" font-family="Arial">no_memory</text>
<rect x="567.75" y="60.00" width="214.50" height="370.00" fill="#1f77b4" opacity="0.9"/>
<text x="675.00" y="52.00" text-anchor="middle" font-size="12" font-family="Arial">1.41</text>
<text x="675.00" y="454" text-anchor="middle" font-size="12" font-family="Arial">full_memory</text>
<text x="450.0" y="502" text-anchor="middle" font-size="15" font-family="Arial">Task</text>
<text x="24" y="260.0" text-anchor="middle" font-size="15" font-family="Arial" transform="rotate(-90 24 260.0)">Average Prediction Gap</text>
</svg>