<svg xmlns="http://www.w3.org/2000/svg" width="900" height="520" viewBox="0 0 900 520">
<rect width="100%" height="100%" fill="white"/>
<text x="450.0" y="30" text-anchor="middle" font-size="22" font-family="Arial">Cross-Task Memory Transfer: Real Simulation Calls</text>
<line x1="90" y1="60" x2="90" y2="430" stroke="black" stroke-width="2"/>
<line x1="90" y1="430" x2="870" y2="430" stroke="black" stroke-width="2"/>
<line x1="90" y1="430.0" x2="870" y2="430.0" stroke="#dddddd" stroke-width="1"/>
<text x="80" y="435.0" text-anchor="end" font-size="12" font-family="Arial">0</text>
<line x1="90" y1="337.5" x2="870" y2="337.5" stroke="#dddddd" stroke-width="1"/>
<text x="80" y="342.5" text-anchor="end" font-size="12" font-family="Arial">0.5</text>
<line x1="90" y1="245.0" x2="870" y2="245.0" stroke="#dddddd" stroke-width="1"/>
<text x="80" y="250.0" text-anchor="end" font-size="12" font-family="Arial">1</text>
<line x1="90" y1="152.5" x2="870" y2="152.5" stroke="#dddddd" stroke-width="1"/>
<text x="80" y="157.5" text-anchor="end" font-size="12" font-family="Arial">1.5</text>
<line x1="90" y1="60.0" x2="870" y2="60.0" stroke="#dddddd" stroke-width="1"/>
<text x="80" y="65.0" text-anchor="end" font-size="12" font-family="Arial">2</text>
<rect x="148.50" y="60.00" width="143.00" height="370.00" fill="#d62728" opacity="0.9"/>
<text x="220.00" y="52.00" text-anchor="middle" font-size="12" font-family="Arial">2</text>
<text x="220.00" y="454" text-anchor="middle" font-size="12" font-family="Arial">no_memory</text>
<rect x="408.50" y="60.00" width="143.00" height="370.00" fill="#1f77b4" opacity="0.9"/>
<text x="480.00" y="52.00" text-anchor="middle" font-size="12" font-family="Arial">2</text>
<text x="480.00" y="454" text-anchor="middle" font-size="12" font-family="Arial">governed_transfer</text>
<rect x="668.50" y="60.00" width="143.00" height="370.00" fill="#9467bd" opacity="0.9"/>
<text x="740.00" y="52.00" text-anchor="middle" font-size="12" font-family="Arial">2</text>
<text x="740.00" y="454" text-anchor="middle" font-size="12" font-family="Arial">forced_transfer</text>
<text x="450.0" y="502" text-anchor="middle" font-size="15" font-family="Arial">Transfer Mode</text>
<text x="24" y="260.0" text-anchor="middle" font-size="15" font-family="Arial" transform="rotate(-90 24 260.0)">Average Real Simulation Calls</text>
</svg>